<?xml version="1.0" encoding="UTF-8"?>
<svg cl:c1="13421772" cl:c2="10066329" cl:c3="6710886" cl:c4="3355443" cl:c5="0" cl:clientversion="1.1.2" cl:filetype="pattern" cl:seamlessversion="2.0" cl:target="web" version="1.1" viewBox="0 0 200 200" xmlns="http://www.w3.org/2000/svg" xmlns:cl="http://www.colourlovers.com/">
 <defs>
  <clipPath id="a">
   <rect width="200" height="200"/>
  </clipPath>
 </defs>
 <g clip-path="url(#a)">
  <rect width="200" height="200" fill="#030303"/>
  <g fill="#0246BB" stroke="#0246BB" stroke-width="0" cl:layername="U2hhcGUgMg==" cl:shapetype="customshape">
   <g transform="matrix(-68.79 -100 100 -68.79 22.35 175.3)">
    <g transform="matrix(.002487 0 0 .002487 -.5 -.15)">
     <g fill="#0246BB" stroke="#0246BB" stroke-width="0">
      <polygon points="0 148.5 9.305 148.5 74.422 74.419 9.305 0 0 0 0 9.084 55.816 74.419 0 137.91"/>
      <polygon points="46.513 148.84 55.818 148.84 120.94 74.755 55.818 0.338 46.513 0.338 46.513 9.416 102.33 74.755 46.513 138.25"/>
      <polygon points="93.021 148.5 102.33 148.5 167.44 74.418 102.33 0 93.021 0 93.021 9.084 148.84 74.419 93.021 137.91"/>
      <polygon points="139.54 148.84 148.84 148.84 213.96 74.754 148.84 0.338 139.54 0.338 139.54 9.416 195.35 74.754 139.54 138.25"/>
      <polygon points="186.05 148.5 195.35 148.5 260.47 74.418 195.35 0 186.05 0 186.05 9.084 241.86 74.418 186.05 137.91"/>
      <polygon points="232.56 148.84 241.86 148.84 306.98 74.754 241.86 0.338 232.56 0.338 232.56 9.416 288.38 74.754 232.56 138.25"/>
      <polygon points="279.06 148.5 288.37 148.5 353.49 74.418 288.37 0 279.06 0 279.06 9.084 334.88 74.418 279.06 137.91"/>
      <polygon points="325.58 148.84 334.88 148.84 400 74.754 334.88 0.338 325.58 0.338 325.58 9.416 381.4 74.754 325.58 138.25"/>
     </g>
    </g>
   </g>
   <g transform="matrix(-68.79 -100 100 -68.79 222.4 175.3)">
    <g transform="matrix(.002487 0 0 .002487 -.5 -.15)">
     <g fill="#0246BB" stroke="#0246BB" stroke-width="0">
      <polygon points="0 148.5 9.305 148.5 74.422 74.419 9.305 0 0 0 0 9.084 55.816 74.419 0 137.91"/>
      <polygon points="46.513 148.84 55.818 148.84 120.94 74.755 55.818 0.338 46.513 0.338 46.513 9.416 102.33 74.755 46.513 138.25"/>
      <polygon points="93.021 148.5 102.33 148.5 167.44 74.418 102.33 0 93.021 0 93.021 9.084 148.84 74.419 93.021 137.91"/>
      <polygon points="139.54 148.84 148.84 148.84 213.96 74.754 148.84 0.338 139.54 0.338 139.54 9.416 195.35 74.754 139.54 138.25"/>
      <polygon points="186.05 148.5 195.35 148.5 260.47 74.418 195.35 0 186.05 0 186.05 9.084 241.86 74.418 186.05 137.91"/>
      <polygon points="232.56 148.84 241.86 148.84 306.98 74.754 241.86 0.338 232.56 0.338 232.56 9.416 288.38 74.754 232.56 138.25"/>
      <polygon points="279.06 148.5 288.37 148.5 353.49 74.418 288.37 0 279.06 0 279.06 9.084 334.88 74.418 279.06 137.91"/>
      <polygon points="325.58 148.84 334.88 148.84 400 74.754 334.88 0.338 325.58 0.338 325.58 9.416 381.4 74.754 325.58 138.25"/>
     </g>
    </g>
   </g>
   <g transform="matrix(-68.79 -100 100 -68.79 22.35 -24.65)">
    <g transform="matrix(.002487 0 0 .002487 -.5 -.15)">
     <g fill="#0246BB" stroke="#0246BB" stroke-width="0">
      <polygon points="0 148.5 9.305 148.5 74.422 74.419 9.305 0 0 0 0 9.084 55.816 74.419 0 137.91"/>
      <polygon points="46.513 148.84 55.818 148.84 120.94 74.755 55.818 0.338 46.513 0.338 46.513 9.416 102.33 74.755 46.513 138.25"/>
      <polygon points="93.021 148.5 102.33 148.5 167.44 74.418 102.33 0 93.021 0 93.021 9.084 148.84 74.419 93.021 137.91"/>
      <polygon points="139.54 148.84 148.84 148.84 213.96 74.754 148.84 0.338 139.54 0.338 139.54 9.416 195.35 74.754 139.54 138.25"/>
      <polygon points="186.05 148.5 195.35 148.5 260.47 74.418 195.35 0 186.05 0 186.05 9.084 241.86 74.418 186.05 137.91"/>
      <polygon points="232.56 148.84 241.86 148.84 306.98 74.754 241.86 0.338 232.56 0.338 232.56 9.416 288.38 74.754 232.56 138.25"/>
      <polygon points="279.06 148.5 288.37 148.5 353.49 74.418 288.37 0 279.06 0 279.06 9.084 334.88 74.418 279.06 137.91"/>
      <polygon points="325.58 148.84 334.88 148.84 400 74.754 334.88 0.338 325.58 0.338 325.58 9.416 381.4 74.754 325.58 138.25"/>
     </g>
    </g>
   </g>
   <g transform="matrix(-68.79 -100 100 -68.79 222.4 -24.65)">
    <g transform="matrix(.002487 0 0 .002487 -.5 -.15)">
     <g fill="#0246BB" stroke="#0246BB" stroke-width="0">
      <polygon points="0 148.5 9.305 148.5 74.422 74.419 9.305 0 0 0 0 9.084 55.816 74.419 0 137.91"/>
      <polygon points="46.513 148.84 55.818 148.84 120.94 74.755 55.818 0.338 46.513 0.338 46.513 9.416 102.33 74.755 46.513 138.25"/>
      <polygon points="93.021 148.5 102.33 148.5 167.44 74.418 102.33 0 93.021 0 93.021 9.084 148.84 74.419 93.021 137.91"/>
      <polygon points="139.54 148.84 148.84 148.84 213.96 74.754 148.84 0.338 139.54 0.338 139.54 9.416 195.35 74.754 139.54 138.25"/>
      <polygon points="186.05 148.5 195.35 148.5 260.47 74.418 195.35 0 186.05 0 186.05 9.084 241.86 74.418 186.05 137.91"/>
      <polygon points="232.56 148.84 241.86 148.84 306.98 74.754 241.86 0.338 232.56 0.338 232.56 9.416 288.38 74.754 232.56 138.25"/>
      <polygon points="279.06 148.5 288.37 148.5 353.49 74.418 288.37 0 279.06 0 279.06 9.084 334.88 74.418 279.06 137.91"/>
      <polygon points="325.58 148.84 334.88 148.84 400 74.754 334.88 0.338 325.58 0.338 325.58 9.416 381.4 74.754 325.58 138.25"/>
     </g>
    </g>
   </g>
  </g>
  <g fill="#6204B8" stroke="#6204B8" stroke-width="0" cl:layername="U2hhcGUgMiAoY29weSk=" cl:shapetype="customshape">
   <g transform="matrix(102.5 -64.27 64.27 102.5 127 42.9)">
    <g transform="matrix(.002487 0 0 .002487 -.5 -.15)">
     <g fill="#6204B8" stroke="#6204B8" stroke-width="0">
      <polygon points="0 148.5 9.305 148.5 74.422 74.419 9.305 0 0 0 0 9.084 55.816 74.419 0 137.91"/>
      <polygon points="46.513 148.84 55.818 148.84 120.94 74.755 55.818 0.338 46.513 0.338 46.513 9.416 102.33 74.755 46.513 138.25"/>
      <polygon points="93.021 148.5 102.33 148.5 167.44 74.418 102.33 0 93.021 0 93.021 9.084 148.84 74.419 93.021 137.91"/>
      <polygon points="139.54 148.84 148.84 148.84 213.96 74.754 148.84 0.338 139.54 0.338 139.54 9.416 195.35 74.754 139.54 138.25"/>
      <polygon points="186.05 148.5 195.35 148.5 260.47 74.418 195.35 0 186.05 0 186.05 9.084 241.86 74.418 186.05 137.91"/>
      <polygon points="232.56 148.84 241.86 148.84 306.98 74.754 241.86 0.338 232.56 0.338 232.56 9.416 288.38 74.754 232.56 138.25"/>
      <polygon points="279.06 148.5 288.37 148.5 353.49 74.418 288.37 0 279.06 0 279.06 9.084 334.88 74.418 279.06 137.91"/>
      <polygon points="325.58 148.84 334.88 148.84 400 74.754 334.88 0.338 325.58 0.338 325.58 9.416 381.4 74.754 325.58 138.25"/>
     </g>
    </g>
   </g>
   <g transform="matrix(102.7 -64.39 64.39 102.7 127 242.9)">
    <g transform="matrix(.002487 0 0 .002487 -.5 -.15)">
     <g fill="#6204B8" stroke="#6204B8" stroke-width="0">
      <polygon points="0 148.5 9.305 148.5 74.422 74.419 9.305 0 0 0 0 9.084 55.816 74.419 0 137.91"/>
      <polygon points="46.513 148.84 55.818 148.84 120.94 74.755 55.818 0.338 46.513 0.338 46.513 9.416 102.33 74.755 46.513 138.25"/>
      <polygon points="93.021 148.5 102.33 148.5 167.44 74.418 102.33 0 93.021 0 93.021 9.084 148.84 74.419 93.021 137.91"/>
      <polygon points="139.54 148.84 148.84 148.84 213.96 74.754 148.84 0.338 139.54 0.338 139.54 9.416 195.35 74.754 139.54 138.25"/>
      <polygon points="186.05 148.5 195.35 148.5 260.47 74.418 195.35 0 186.05 0 186.05 9.084 241.86 74.418 186.05 137.91"/>
      <polygon points="232.56 148.84 241.86 148.84 306.98 74.754 241.86 0.338 232.56 0.338 232.56 9.416 288.38 74.754 232.56 138.25"/>
      <polygon points="279.06 148.5 288.37 148.5 353.49 74.418 288.37 0 279.06 0 279.06 9.084 334.88 74.418 279.06 137.91"/>
      <polygon points="325.58 148.84 334.88 148.84 400 74.754 334.88 0.338 325.58 0.338 325.58 9.416 381.4 74.754 325.58 138.25"/>
     </g>
    </g>
   </g>
  </g>
  <g fill="#5CA8DF" stroke="#5CA8DF" stroke-width="0" cl:layername="U2hhcGUgMiAoY29weSAyKQ==" cl:shapetype="customshape">
   <g transform="matrix(71.57 97.37 -97.37 71.57 40 63.65)">
    <g transform="matrix(.002487 0 0 .002487 -.5 -.15)">
     <g fill="#5CA8DF" stroke="#5CA8DF" stroke-width="0">
      <polygon points="0 148.5 9.305 148.5 74.422 74.419 9.305 0 0 0 0 9.084 55.816 74.419 0 137.91"/>
      <polygon points="46.513 148.84 55.818 148.84 120.94 74.755 55.818 0.338 46.513 0.338 46.513 9.416 102.33 74.755 46.513 138.25"/>
      <polygon points="93.021 148.5 102.33 148.5 167.44 74.418 102.33 0 93.021 0 93.021 9.084 148.84 74.419 93.021 137.91"/>
      <polygon points="139.54 148.84 148.84 148.84 213.96 74.754 148.84 0.338 139.54 0.338 139.54 9.416 195.35 74.754 139.54 138.25"/>
      <polygon points="186.05 148.5 195.35 148.5 260.47 74.418 195.35 0 186.05 0 186.05 9.084 241.86 74.418 186.05 137.91"/>
      <polygon points="232.56 148.84 241.86 148.84 306.98 74.754 241.86 0.338 232.56 0.338 232.56 9.416 288.38 74.754 232.56 138.25"/>
      <polygon points="279.06 148.5 288.37 148.5 353.49 74.418 288.37 0 279.06 0 279.06 9.084 334.88 74.418 279.06 137.91"/>
      <polygon points="325.58 148.84 334.88 148.84 400 74.754 334.88 0.338 325.58 0.338 325.58 9.416 381.4 74.754 325.58 138.25"/>
     </g>
    </g>
   </g>
   <g transform="matrix(71.57 97.37 -97.37 71.57 240 63.65)">
    <g transform="matrix(.002487 0 0 .002487 -.5 -.15)">
     <g fill="#5CA8DF" stroke="#5CA8DF" stroke-width="0">
      <polygon points="0 148.5 9.305 148.5 74.422 74.419 9.305 0 0 0 0 9.084 55.816 74.419 0 137.91"/>
      <polygon points="46.513 148.84 55.818 148.84 120.94 74.755 55.818 0.338 46.513 0.338 46.513 9.416 102.33 74.755 46.513 138.25"/>
      <polygon points="93.021 148.5 102.33 148.5 167.44 74.418 102.33 0 93.021 0 93.021 9.084 148.84 74.419 93.021 137.91"/>
      <polygon points="139.54 148.84 148.84 148.84 213.96 74.754 148.84 0.338 139.54 0.338 139.54 9.416 195.35 74.754 139.54 138.25"/>
      <polygon points="186.05 148.5 195.35 148.5 260.47 74.418 195.35 0 186.05 0 186.05 9.084 241.86 74.418 186.05 137.91"/>
      <polygon points="232.56 148.84 241.86 148.84 306.98 74.754 241.86 0.338 232.56 0.338 232.56 9.416 288.38 74.754 232.56 138.25"/>
      <polygon points="279.06 148.5 288.37 148.5 353.49 74.418 288.37 0 279.06 0 279.06 9.084 334.88 74.418 279.06 137.91"/>
      <polygon points="325.58 148.84 334.88 148.84 400 74.754 334.88 0.338 325.58 0.338 325.58 9.416 381.4 74.754 325.58 138.25"/>
     </g>
    </g>
   </g>
  </g>
  <g fill="#E02C7D" stroke="#E02C7D" stroke-width="0" cl:layername="U2hhcGUgMiAoY29weSAzKQ==" cl:shapetype="customshape">
   <g transform="matrix(120.6 -3.191 3.191 120.6 104.4 132.6)">
    <g transform="matrix(.002487 0 0 .002487 -.5 -.15)">
     <g fill="#E02C7D" stroke="#E02C7D" stroke-width="0">
      <polygon points="0 148.5 9.305 148.5 74.422 74.419 9.305 0 0 0 0 9.084 55.816 74.419 0 137.91"/>
      <polygon points="46.513 148.84 55.818 148.84 120.94 74.755 55.818 0.338 46.513 0.338 46.513 9.416 102.33 74.755 46.513 138.25"/>
      <polygon points="93.021 148.5 102.33 148.5 167.44 74.418 102.33 0 93.021 0 93.021 9.084 148.84 74.419 93.021 137.91"/>
      <polygon points="139.54 148.84 148.84 148.84 213.96 74.754 148.84 0.338 139.54 0.338 139.54 9.416 195.35 74.754 139.54 138.25"/>
      <polygon points="186.05 148.5 195.35 148.5 260.47 74.418 195.35 0 186.05 0 186.05 9.084 241.86 74.418 186.05 137.91"/>
      <polygon points="232.56 148.84 241.86 148.84 306.98 74.754 241.86 0.338 232.56 0.338 232.56 9.416 288.38 74.754 232.56 138.25"/>
      <polygon points="279.06 148.5 288.37 148.5 353.49 74.418 288.37 0 279.06 0 279.06 9.084 334.88 74.418 279.06 137.91"/>
      <polygon points="325.58 148.84 334.88 148.84 400 74.754 334.88 0.338 325.58 0.338 325.58 9.416 381.4 74.754 325.58 138.25"/>
     </g>
    </g>
   </g>
  </g>
  <g fill="#0246BB" stroke="#0246BB" stroke-width="0" cl:layername="U2hhcGUgMSAoY29weSAzKQ==" cl:shapetype="customshape">
   <g transform="matrix(38.48 -49.51 -45.11 -38.01 110.3 86.1)">
    <g transform="matrix(.00528 0 0 .00528 -.5 -.4)">
     <polygon points="0 163.74 94.537 0 189.07 163.74" fill="#0246BB" stroke="#0246BB" stroke-width="0"/>
    </g>
   </g>
  </g>
  <g fill="#6204B8" stroke="#6204B8" stroke-width="0" cl:layername="U2hhcGUgMSAoY29weSk=" cl:shapetype="customshape">
   <g transform="matrix(77.41 52.09 52.11 -70.56 176.6 181.8)">
    <g transform="matrix(.00528 0 0 .00528 -.5 -.4)">
     <polygon points="0 163.74 94.537 0 189.07 163.74" fill="#6204B8" stroke="#6204B8" stroke-width="0"/>
    </g>
   </g>
   <g transform="matrix(77.41 52.09 52.11 -70.56 -23.4 181.8)">
    <g transform="matrix(.00528 0 0 .00528 -.5 -.4)">
     <polygon points="0 163.74 94.537 0 189.07 163.74" fill="#6204B8" stroke="#6204B8" stroke-width="0"/>
    </g>
   </g>
   <g transform="matrix(77.41 52.09 52.11 -70.56 176.6 -18.15)">
    <g transform="matrix(.00528 0 0 .00528 -.5 -.4)">
     <polygon points="0 163.74 94.537 0 189.07 163.74" fill="#6204B8" stroke="#6204B8" stroke-width="0"/>
    </g>
   </g>
   <g transform="matrix(77.41 52.09 52.11 -70.56 -23.4 -18.15)">
    <g transform="matrix(.00528 0 0 .00528 -.5 -.4)">
     <polygon points="0 163.74 94.537 0 189.07 163.74" fill="#6204B8" stroke="#6204B8" stroke-width="0"/>
    </g>
   </g>
  </g>
  <g fill="#0246BB" stroke="#0246BB" stroke-width="0" cl:layername="U2hhcGUgMSAoY29weSAyKQ==" cl:shapetype="customshape">
   <g transform="matrix(49.4 45.05 -40.31 48.29 105.4 132.4)">
    <g transform="matrix(.00528 0 0 .00528 -.5 -.4)">
     <polygon points="0 163.74 94.537 0 189.07 163.74" fill="#0246BB" stroke="#0246BB" stroke-width="0"/>
    </g>
   </g>
  </g>
  <g fill="#E02C7D" stroke="#E02C7D" stroke-width="0" cl:layername="U2hhcGUgMQ==" cl:shapetype="customshape">
   <g transform="matrix(7.895 -93.58 -87.59 -11.1 7.35 172.9)">
    <g transform="matrix(.00528 0 0 .00528 -.5 -.4)">
     <polygon points="0 163.74 94.537 0 189.07 163.74" fill="#E02C7D" stroke="#E02C7D" stroke-width="0"/>
    </g>
   </g>
   <g transform="matrix(7.895 -93.58 -87.59 -11.1 207.4 172.9)">
    <g transform="matrix(.00528 0 0 .00528 -.5 -.4)">
     <polygon points="0 163.74 94.537 0 189.07 163.74" fill="#E02C7D" stroke="#E02C7D" stroke-width="0"/>
    </g>
   </g>
   <g transform="matrix(7.895 -93.58 -87.59 -11.1 7.35 -27.15)">
    <g transform="matrix(.00528 0 0 .00528 -.5 -.4)">
     <polygon points="0 163.74 94.537 0 189.07 163.74" fill="#E02C7D" stroke="#E02C7D" stroke-width="0"/>
    </g>
   </g>
   <g transform="matrix(7.895 -93.58 -87.59 -11.1 207.4 -27.15)">
    <g transform="matrix(.00528 0 0 .00528 -.5 -.4)">
     <polygon points="0 163.74 94.537 0 189.07 163.74" fill="#E02C7D" stroke="#E02C7D" stroke-width="0"/>
    </g>
   </g>
  </g>
  <g fill="#5CA8DF" stroke="#5CA8DF" stroke-width="0" cl:layername="U2hhcGUgMSAoY29weSk=" cl:shapetype="customshape">
   <g transform="matrix(5.514 -66.9 -62.65 -7.905 187.8 171)">
    <g transform="matrix(.00528 0 0 .00528 -.5 -.4)">
     <polygon points="0 163.74 94.537 0 189.07 163.74" fill="#5CA8DF" stroke="#5CA8DF" stroke-width="0"/>
    </g>
   </g>
   <g transform="matrix(5.514 -66.9 -62.65 -7.905 -12.15 171)">
    <g transform="matrix(.00528 0 0 .00528 -.5 -.4)">
     <polygon points="0 163.74 94.537 0 189.07 163.74" fill="#5CA8DF" stroke="#5CA8DF" stroke-width="0"/>
    </g>
   </g>
   <g transform="matrix(5.514 -66.9 -62.65 -7.905 187.8 -29.05)">
    <g transform="matrix(.00528 0 0 .00528 -.5 -.4)">
     <polygon points="0 163.74 94.537 0 189.07 163.74" fill="#5CA8DF" stroke="#5CA8DF" stroke-width="0"/>
    </g>
   </g>
   <g transform="matrix(5.514 -66.9 -62.65 -7.905 -12.15 -29.05)">
    <g transform="matrix(.00528 0 0 .00528 -.5 -.4)">
     <polygon points="0 163.74 94.537 0 189.07 163.74" fill="#5CA8DF" stroke="#5CA8DF" stroke-width="0"/>
    </g>
   </g>
  </g>
  <g fill="#0246BB" stroke="#0246BB" stroke-width="0" cl:layername="U2hhcGUgMSAoY29weSAyKQ==" cl:shapetype="customshape">
   <g transform="matrix(72.01 9.962 -8.343 67.76 86.95 51.25)">
    <g transform="matrix(.00528 0 0 .00528 -.5 -.4)">
     <polygon points="0 163.74 94.537 0 189.07 163.74" fill="#0246BB" stroke="#0246BB" stroke-width="0"/>
    </g>
   </g>
  </g>
  <g fill="#5CA8DF" stroke="#5CA8DF" stroke-width="0" cl:layername="U2hhcGUgMSAoY29weSAzKQ==" cl:shapetype="customshape">
   <g transform="matrix(-37.83 46.54 42.87 36.41 28.7 52.5)">
    <g transform="matrix(.00528 0 0 .00528 -.5 -.4)">
     <polygon points="0 163.74 94.537 0 189.07 163.74" fill="#5CA8DF" stroke="#5CA8DF" stroke-width="0"/>
    </g>
   </g>
   <g transform="matrix(-37.83 46.54 42.87 36.41 228.7 52.5)">
    <g transform="matrix(.00528 0 0 .00528 -.5 -.4)">
     <polygon points="0 163.74 94.537 0 189.07 163.74" fill="#5CA8DF" stroke="#5CA8DF" stroke-width="0"/>
    </g>
   </g>
  </g>
  <g fill="#5CA8DF" stroke="#5CA8DF" stroke-width="0" cl:layername="U2hhcGUgMSAoY29weSk=" cl:shapetype="customshape">
   <g transform="matrix(48.38 -56.02 53.72 41.38 90.6 69.15)">
    <g transform="matrix(.00528 0 0 .00528 -.5 -.4)">
     <polygon points="0 163.74 94.537 0 189.07 163.74" fill="#5CA8DF" stroke="#5CA8DF" stroke-width="0"/>
    </g>
   </g>
  </g>
  <g fill="#E02C7D" stroke="#E02C7D" stroke-width="0" cl:layername="U2hhcGUgMSAoY29weSAyKQ==" cl:shapetype="customshape">
   <g transform="matrix(34.64 -40.06 38.44 29.65 102.3 78.65)">
    <g transform="matrix(.00528 0 0 .00528 -.5 -.4)">
     <polygon points="0 163.74 94.537 0 189.07 163.74" fill="#E02C7D" stroke="#E02C7D" stroke-width="0"/>
    </g>
   </g>
  </g>
  <g fill="#6204B8" stroke="#6204B8" stroke-width="0" cl:layername="U2hhcGUgMSAoY29weSAyKQ==" cl:shapetype="customshape">
   <g transform="matrix(61.01 -63.72 -57.36 -59.91 198.8 99.8)">
    <g transform="matrix(.00528 0 0 .00528 -.5 -.4)">
     <polygon points="0 163.74 94.537 0 189.07 163.74" fill="#6204B8" stroke="#6204B8" stroke-width="0"/>
    </g>
   </g>
   <g transform="matrix(61.01 -63.72 -57.36 -59.91 -1.15 99.8)">
    <g transform="matrix(.00528 0 0 .00528 -.5 -.4)">
     <polygon points="0 163.74 94.537 0 189.07 163.74" fill="#6204B8" stroke="#6204B8" stroke-width="0"/>
    </g>
   </g>
  </g>
  <g fill="#E02C7D" stroke="#E02C7D" stroke-width="0" cl:layername="U2hhcGUgMSAoY29weSk=" cl:shapetype="customshape">
   <g transform="matrix(86.58 18.42 20.72 -80.58 189.3 79.7)">
    <g transform="matrix(.00528 0 0 .00528 -.5 -.4)">
     <polygon points="0 163.74 94.537 0 189.07 163.74" fill="#E02C7D" stroke="#E02C7D" stroke-width="0"/>
    </g>
   </g>
   <g transform="matrix(86.58 18.42 20.72 -80.58 -10.75 79.7)">
    <g transform="matrix(.00528 0 0 .00528 -.5 -.4)">
     <polygon points="0 163.74 94.537 0 189.07 163.74" fill="#E02C7D" stroke="#E02C7D" stroke-width="0"/>
    </g>
   </g>
  </g>
  <g fill="#5CA8DF" stroke="#5CA8DF" stroke-width="0" cl:layername="U2hhcGUgMSAoY29weSAyKQ==" cl:shapetype="customshape">
   <g transform="matrix(61.95 13.14 14.8 -57.7 193.4 61.55)">
    <g transform="matrix(.00528 0 0 .00528 -.5 -.4)">
     <polygon points="0 163.74 94.537 0 189.07 163.74" fill="#5CA8DF" stroke="#5CA8DF" stroke-width="0"/>
    </g>
   </g>
   <g transform="matrix(61.95 13.14 14.8 -57.7 -6.65 61.55)">
    <g transform="matrix(.00528 0 0 .00528 -.5 -.4)">
     <polygon points="0 163.74 94.537 0 189.07 163.74" fill="#5CA8DF" stroke="#5CA8DF" stroke-width="0"/>
    </g>
   </g>
  </g>
  <g fill="#0246BB" stroke="#0246BB" stroke-width="0" cl:layername="U2hhcGUgMSAoY29weSAzKQ==" cl:shapetype="customshape">
   <g transform="matrix(50.68 60.43 -55.61 48.71 101.8 162.1)">
    <g transform="matrix(.00528 0 0 .00528 -.5 -.4)">
     <polygon points="0 163.74 94.537 0 189.07 163.74" fill="#0246BB" stroke="#0246BB" stroke-width="0"/>
    </g>
   </g>
   <g transform="matrix(50.68 60.43 -55.61 48.71 101.8 -37.9)">
    <g transform="matrix(.00528 0 0 .00528 -.5 -.4)">
     <polygon points="0 163.74 94.537 0 189.07 163.74" fill="#0246BB" stroke="#0246BB" stroke-width="0"/>
    </g>
   </g>
  </g>
  <g fill="#6204B8" stroke="#6204B8" stroke-width="0" cl:layername="U2hhcGUgMSAoY29weSA0KQ==" cl:shapetype="customshape">
   <g transform="matrix(36.39 43.36 -39.97 34.95 128.6 138.3)">
    <g transform="matrix(.00528 0 0 .00528 -.5 -.4)">
     <polygon points="0 163.74 94.537 0 189.07 163.74" fill="#6204B8" stroke="#6204B8" stroke-width="0"/>
    </g>
   </g>
  </g>
  <g fill="#5CA8DF" stroke="#5CA8DF" stroke-width="0" cl:layername="U2hhcGUgMSAoY29weSAyKQ==" cl:shapetype="customshape">
   <g transform="matrix(79.31 -10.1 13.31 72.52 91.8 179.3)">
    <g transform="matrix(.00528 0 0 .00528 -.5 -.4)">
     <polygon points="0 163.74 94.537 0 189.07 163.74" fill="#5CA8DF" stroke="#5CA8DF" stroke-width="0"/>
    </g>
   </g>
   <g transform="matrix(79.31 -10.1 13.31 72.52 91.8 -20.75)">
    <g transform="matrix(.00528 0 0 .00528 -.5 -.4)">
     <polygon points="0 163.74 94.537 0 189.07 163.74" fill="#5CA8DF" stroke="#5CA8DF" stroke-width="0"/>
    </g>
   </g>
  </g>
  <g fill="#E02C7D" stroke="#E02C7D" stroke-width="0" cl:layername="U2hhcGUgMSAoY29weSAzKQ==" cl:shapetype="customshape">
   <g transform="matrix(56.75 -7.193 9.496 51.93 94.3 195.5)">
    <g transform="matrix(.00528 0 0 .00528 -.5 -.4)">
     <polygon points="0 163.74 94.537 0 189.07 163.74" fill="#E02C7D" stroke="#E02C7D" stroke-width="0"/>
    </g>
   </g>
   <g transform="matrix(56.75 -7.193 9.496 51.93 94.3 -4.5)">
    <g transform="matrix(.00528 0 0 .00528 -.5 -.4)">
     <polygon points="0 163.74 94.537 0 189.07 163.74" fill="#E02C7D" stroke="#E02C7D" stroke-width="0"/>
    </g>
   </g>
  </g>
 </g>
</svg>
